# File created by Blade
# Date/Time:  Thu Jan 22 16:05:08 2015
#---------------------------------------------------------
:version 1.10
:name HOM
:units
  mass 1.0
  length 1.000000
  angle deg
:documentation
     Acclaim Skeleton File
:root
   axis xyz
   order TX TY TZ RX RY RZ
   position 0.000000 0.000000 0.000000
   orientation 0 0 0
:bonedata
   begin
      id 1
      name RightUpLeg_dum
      direction -1.000000 0.000000 0.000000
      length 3.766986
      axis 0.0 0.0 0.0 xyz
   end
   begin
      id 2
      name LeftUpLeg_dum
      direction 1.000000 0.000000 0.000000
      length 3.766986
      axis 0.0 0.0 0.0 xyz
   end
   begin
      id 3
      name Spine_dum
      direction 0.000000 1.000000 0.000000
      length 7.779697
      axis 0.0 0.0 0.0 xyz
   end
   begin
      id 4
      name RightUpLeg
      direction 0.000000 -1.000000 0.000000
      length 18.017682
      axis 0.0 0.0 0.0 xyz
      dof rx ry rz
   end
   begin
      id 5
      name RightLeg
      direction 0.000000 -1.000000 0.000000
      length 16.881075
      axis 0.0 0.0 0.0 xyz
      dof rx ry rz
   end
   begin
      id 6
      name RightFoot
      direction 0.000000 -0.258819 0.965926
      length 5.770812
      axis 15.0 0.0 0.0 xyz
      dof rx ry rz
   end
   begin
      id 7
      name RightToeBase
      direction 0.000000 0.000000 1.000000
      length 2.952750
      axis 0.0 0.0 0.0 xyz
      dof rx ry rz
   end
   begin
      id 8
      name LeftUpLeg
      direction 0.000000 -1.000000 0.000000
      length 18.017682
      axis 0.0 0.0 0.0 xyz
      dof rx ry rz
   end
   begin
      id 9
      name LeftLeg
      direction 0.000000 -1.000000 0.000000
      length 16.881075
      axis 0.0 0.0 0.0 xyz
      dof rx ry rz
   end
   begin
      id 10
      name LeftFoot
      direction 0.000000 -0.258819 0.965926
      length 5.770812
      axis 15.0 0.0 0.0 xyz
      dof rx ry rz
   end
   begin
      id 11
      name LeftToeBase
      direction 0.000000 0.000000 1.000000
      length 2.952750
      axis 0.0 0.0 0.0 xyz
      dof rx ry rz
   end
   begin
      id 12
      name Spine
      direction 0.000000 1.000000 0.000000
      length 0.000000
      axis 0.0 0.0 0.0 xyz
      dof rx ry rz
   end
   begin
      id 13
      name Spine_dum1
      direction 0.000000 1.000000 0.000000
      length 10.941760
      axis 0.0 0.0 0.0 xyz
   end
   begin
      id 14
      name Spine_dum2
      direction 0.000000 1.000000 0.000000
      length 10.941760
      axis 0.0 0.0 0.0 xyz
   end
   begin
      id 15
      name Spine_dum3
      direction 0.000000 1.000000 0.000000
      length 16.646042
      axis 0.0 0.0 0.0 xyz
   end
   begin
      id 16
      name RightShoulder
      direction -1.000000 0.000000 0.000000
      length 7.708937
      axis 0.0 0.0 90.0 xyz
      dof rx ry rz
   end
   begin
      id 17
      name RightArm
      direction -1.000000 0.000000 0.000000
      length 11.521345
      axis 0.0 0.0 90.0 xyz
      dof rx ry rz
   end
   begin
      id 18
      name RightForeArm
      direction -1.000000 0.000000 0.000000
      length 10.175898
      axis 0.0 0.0 90.0 xyz
      dof ry rz rx
   end
   begin
      id 19
      name RightHand
      direction -1.000000 0.000000 0.000000
      length 0.000000
      axis 0.0 0.0 90.0 xyz
      dof rx ry rz
   end
   begin
      id 20
      name RightHand_dum1
      direction -1.000000 0.000000 0.000000
      length 3.937000
      axis 0.0 0.0 90.0 xyz
   end
   begin
      id 21
      name RightHand_dum2
      direction 0.000000 0.000000 0.000000
      length 0.000000
      axis 0.0 0.0 90.0 xyz
   end
   begin
      id 22
      name RightHandThumb1
      direction 0.000000 0.000000 1.000000
      length 3.937000
      axis 0.0 0.0 90.0 xyz
      dof rx rz ry
   end
   begin
      id 23
      name LeftShoulder
      direction 1.000000 0.000000 0.000000
      length 7.708937
      axis 0.0 0.0 -90.0 xyz
      dof rx ry rz
   end
   begin
      id 24
      name LeftArm
      direction 1.000000 0.000000 0.000000
      length 11.521345
      axis 0.0 0.0 -90.0 xyz
      dof rx ry rz
   end
   begin
      id 25
      name LeftForeArm
      direction 1.000000 0.000000 0.000000
      length 10.175898
      axis 0.0 0.0 -90.0 xyz
      dof ry rz rx
   end
   begin
      id 26
      name LeftHand
      direction 1.000000 0.000000 0.000000
      length 0.000000
      axis 0.0 0.0 -90.0 xyz
      dof rx ry rz
   end
   begin
      id 27
      name LeftHand_dum1
      direction 1.000000 0.000000 0.000000
      length 3.937000
      axis 0.0 0.0 -90.0 xyz
   end
   begin
      id 28
      name LeftHand_dum2
      direction 0.000000 0.000000 0.000000
      length 0.000000
      axis 0.0 0.0 -90.0 xyz
   end
   begin
      id 29
      name LeftHandThumb1
      direction 0.000000 0.000000 1.000000
      length 3.937000
      axis 0.0 0.0 -90.0 xyz
      dof rx rz ry
   end
   begin
      id 30
      name Head
      direction 0.000000 1.000000 0.000000
      length 4.527550
      axis 0.0 0.0 0.0 xyz
      dof rx ry rz
   end
:hierarchy
   begin
      root RightUpLeg_dum LeftUpLeg_dum Spine_dum
      RightUpLeg_dum RightUpLeg
      LeftUpLeg_dum LeftUpLeg
      Spine_dum Spine
      RightUpLeg RightLeg
      RightLeg RightFoot
      RightFoot RightToeBase
      LeftUpLeg LeftLeg
      LeftLeg LeftFoot
      LeftFoot LeftToeBase
      Spine Spine_dum1 Spine_dum2 Spine_dum3
      Spine_dum1 RightShoulder
      Spine_dum2 LeftShoulder
      Spine_dum3 Head
      RightShoulder RightArm
      RightArm RightForeArm
      RightForeArm RightHand
      RightHand RightHand_dum1 RightHand_dum2
      RightHand_dum2 RightHandThumb1
      LeftShoulder LeftArm
      LeftArm LeftForeArm
      LeftForeArm LeftHand
      LeftHand LeftHand_dum1 LeftHand_dum2
      LeftHand_dum2 LeftHandThumb1
   end

# File created by Blade
# Date/Time:  Thu Jan 22 16:04:59 2015
# Frame Rate: 120.000 fps
#------------------------------------------------------
:FULLY-SPECIFIED
:DEGREES
382
root 2.217010 36.562129 5.588270 18.842992 -68.955302 -23.389175
RightUpLeg -7.407380 28.310393 2.594898
RightLeg 3.796317 -0.000000 -0.000000
RightFoot 4.340287 13.644504 21.359091
RightToeBase 16.252509 -0.000000 -0.000000
LeftUpLeg 23.191558 31.626700 16.763976
LeftLeg 2.642018 -0.000000 -0.000000
LeftFoot -26.424429 31.697527 -33.235549
LeftToeBase 6.744678 -0.000000 -0.000000
Spine 16.701933 -52.739708 -17.767691
RightShoulder -8.274932 -33.011670 -20.596128
RightArm -8.185297 4.845501 71.102344
RightForeArm 31.770948 0.000000 11.922938
RightHand 1.115422 0.000000 -13.751735
RightHandThumb1 -24.326973 -0.000000 -32.862282
LeftShoulder 2.818132 19.215133 29.827068
LeftArm 104.994020 -5.318419 -25.244616
LeftForeArm 36.043985 -0.000000 49.832303
LeftHand -6.820172 -0.000000 -8.042993
LeftHandThumb1 -26.253704 0.000000 33.147579
Head 24.764719 33.020943 24.843322
383
root 2.223488 36.560870 5.587561 18.825639 -68.988996 -23.381357
RightUpLeg -7.420068 28.322974 2.580630
RightLeg 3.819045 -0.000000 -0.000000
RightFoot 4.332164 13.666190 21.344350
RightToeBase 16.277061 -0.000000 -0.000000
LeftUpLeg 23.181846 31.621395 16.736576
LeftLeg 2.672379 -0.000000 -0.000000
LeftFoot -26.463930 31.726002 -33.237000
LeftToeBase 6.701139 -0.000000 -0.000000
Spine 16.663164 -52.729885 -17.714316
RightShoulder -8.243638 -33.017581 -20.595432
RightArm -8.194375 4.805187 71.150757
RightForeArm 31.798835 0.000000 11.949488
RightHand 1.104930 0.000000 -13.797155
RightHandThumb1 -24.326973 -0.000000 -32.862282
LeftShoulder 2.821900 19.212216 29.787437
LeftArm 105.008408 -5.389568 -25.106371
LeftForeArm 35.884892 0.000000 50.117771
LeftHand -6.899278 -0.000000 -8.020039
LeftHandThumb1 -26.253704 0.000000 33.147579
Head 24.819328 33.321739 24.945792
384
root 2.230241 36.559557 5.587197 18.801843 -69.032616 -23.370836
RightUpLeg -7.428877 28.334691 2.561618
RightLeg 3.838690 -0.000000 -0.000000
RightFoot 4.341899 13.693785 21.374812
RightToeBase 16.312768 -0.000000 -0.000000
LeftUpLeg 23.180525 31.618121 16.707455
LeftLeg 2.703830 -0.000000 -0.000000
LeftFoot -26.514528 31.729280 -33.269033
LeftToeBase 6.686599 -0.000000 -0.000000
Spine 16.622100 -52.692367 -17.669724
RightShoulder -8.206093 -33.028620 -20.591487
RightArm -8.196549 4.750385 71.211687
RightForeArm 31.892315 -0.000000 11.957285
RightHand 1.187733 0.000000 -13.894876
RightHandThumb1 -24.326973 -0.000000 -32.862282
LeftShoulder 2.864547 19.188347 29.753989
LeftArm 105.018012 -5.438973 -24.988942
LeftForeArm 35.756378 -0.000000 50.401620
LeftHand -6.898810 -0.000000 -8.023579
LeftHandThumb1 -26.253704 0.000000 33.147579
Head 24.853728 33.582247 25.025706
385
root 2.235969 36.558552 5.586203 18.766726 -69.067863 -23.353286
RightUpLeg -7.426725 28.355708 2.545808
RightLeg 3.850130 -0.000000 -0.000000
RightFoot 4.342205 13.700264 21.397294
RightToeBase 16.291576 -0.000000 -0.000000
LeftUpLeg 23.182262 31.613061 16.685985
LeftLeg 2.736299 -0.000000 -0.000000
LeftFoot -26.540886 31.744591 -33.280959
LeftToeBase 6.699333 -0.000000 -0.000000
Spine 16.588793 -52.649313 -17.628353
RightShoulder -8.212257 -33.042625 -20.569951
RightArm -8.170903 4.666212 71.259096
RightForeArm 31.921923 0.000000 11.969972
RightHand 1.145006 -0.000000 -13.873703
RightHandThumb1 -24.326973 -0.000000 -32.862282
LeftShoulder 2.898985 19.210210 29.714174
LeftArm 105.061663 -5.516764 -24.874952
LeftForeArm 35.642511 -0.000000 50.700144
LeftHand -6.911394 -0.000000 -8.131846
LeftHandThumb1 -26.253704 0.000000 33.147579
Head 24.895155 33.856727 25.106429
386
root 2.240666 36.556993 5.586651 18.726986 -69.091422 -23.332702
RightUpLeg -7.414813 28.350300 2.535662
RightLeg 3.858569 -0.000000 -0.000000
RightFoot 4.335832 13.719145 21.395675
RightToeBase 16.218963 -0.000000 -0.000000
LeftUpLeg 23.185509 31.598318 16.666362
LeftLeg 2.768096 -0.000000 -0.000000
LeftFoot -26.581778 31.761728 -33.276057
LeftToeBase 6.726601 -0.000000 -0.000000
Spine 16.567805 -52.621650 -17.596079
RightShoulder -8.198177 -33.026024 -20.557997
RightArm -8.146515 4.526401 71.297459
RightForeArm 31.946102 -0.000000 11.930183
RightHand 1.157328 -0.000000 -13.869977
RightHandThumb1 -24.326973 -0.000000 -32.862282
LeftShoulder 2.936222 19.271764 29.694980
LeftArm 105.141396 -5.597479 -24.810435
LeftForeArm 35.657459 -0.000000 50.986582
LeftHand -6.877675 -0.000000 -8.099418
LeftHandThumb1 -26.253704 0.000000 33.147579
Head 24.944471 34.149122 25.214214
387
root 2.245701 36.555321 5.586441 18.678543 -69.110463 -23.307560
RightUpLeg -7.401579 28.331468 2.525937
RightLeg 3.866749 -0.000000 -0.000000
RightFoot 4.346891 13.780165 21.430053
RightToeBase 16.360792 -0.000000 -0.000000
LeftUpLeg 23.190516 31.601234 16.661374
LeftLeg 2.812591 -0.000000 -0.000000
LeftFoot -26.613972 31.735715 -33.287842
LeftToeBase 6.766395 -0.000000 -0.000000
Spine 16.565717 -52.627080 -17.575680
RightShoulder -8.147138 -33.070527 -20.556509
RightArm -8.075411 4.434487 71.351326
RightForeArm 32.015919 -0.000000 11.966781
RightHand 1.079474 0.000000 -14.002158
RightHandThumb1 -24.326973 -0.000000 -32.862282
LeftShoulder 2.932897 19.301730 29.625149
LeftArm 105.208372 -5.646688 -24.727840
LeftForeArm 35.644230 0.000000 51.280644
LeftHand -6.885605 -0.000000 -8.044771
LeftHandThumb1 -26.253704 0.000000 33.147579
Head 24.994781 34.461385 25.277574
388
root 2.250803 36.553759 5.586558 18.633650 -69.125250 -23.290368
RightUpLeg -7.377488 28.323085 2.521678
RightLeg 3.864477 -0.000000 -0.000000
RightFoot 4.359087 13.809850 21.463485
RightToeBase 16.401064 -0.000000 -0.000000
LeftUpLeg 23.193021 31.582903 16.651726
LeftLeg 2.858875 -0.000000 -0.000000
LeftFoot -26.636278 31.746086 -33.264627
LeftToeBase 6.719309 -0.000000 -0.000000
Spine 16.569912 -52.626499 -17.562513
RightShoulder -8.087355 -33.066954 -20.564373
RightArm -8.054847 4.411585 71.390209
RightForeArm 31.953681 -0.000000 11.998317
RightHand 1.000932 -0.000000 -13.872386
RightHandThumb1 -24.326973 -0.000000 -32.862282
LeftShoulder 2.955897 19.331514 29.578853
LeftArm 105.253615 -5.699534 -24.649744
LeftForeArm 35.640383 -0.000000 51.591194
LeftHand -6.831597 0.000000 -8.081825
LeftHandThumb1 -26.253704 0.000000 33.147579
Head 25.055150 34.766412 25.361291
389
root 2.256590 36.552435 5.586234 18.565877 -69.132066 -23.240923
RightUpLeg -7.365396 28.298488 2.505307
RightLeg 3.868187 -0.000000 -0.000000
RightFoot 4.357082 13.840097 21.458788
RightToeBase 16.346403 -0.000000 -0.000000
LeftUpLeg 23.176025 31.553841 16.622997
LeftLeg 2.910291 -0.000000 -0.000000
LeftFoot -26.676147 31.763297 -33.260034
LeftToeBase 6.730985 -0.000000 -0.000000
Spine 16.577166 -52.631258 -17.559633
RightShoulder -8.035817 -33.013915 -20.556748
RightArm -8.077147 4.368395 71.420137
RightForeArm 31.982209 -0.000000 12.026588
RightHand 1.071058 -0.000000 -13.913315
RightHandThumb1 -24.326973 -0.000000 -32.862282
LeftShoulder 2.971835 19.329865 29.537997
LeftArm 105.296896 -5.711992 -24.565478
LeftForeArm 35.632303 -0.000000 51.905846
LeftHand -6.888426 0.000000 -8.325830
LeftHandThumb1 -26.253704 0.000000 33.147579
Head 25.108078 35.057932 25.446601
390
root 2.262722 36.551061 5.585924 18.519373 -69.142540 -23.206022
RightUpLeg -7.365028 28.285825 2.487370
RightLeg 3.873343 -0.000000 -0.000000
RightFoot 4.369924 13.855800 21.491021
RightToeBase 16.287094 -0.000000 -0.000000
LeftUpLeg 23.153789 31.542395 16.594949
LeftLeg 2.959356 -0.000000 -0.000000
LeftFoot -26.705366 31.770339 -33.244268
LeftToeBase 6.729123 -0.000000 -0.000000
Spine 16.551761 -52.626503 -17.526063
RightShoulder -7.991449 -33.003395 -20.565489
RightArm -8.056302 4.374736 71.464826
RightForeArm 31.905781 0.000000 12.066056
RightHand 0.999796 -0.000000 -13.868918
RightHandThumb1 -24.326973 -0.000000 -32.862282
LeftShoulder 2.996436 19.338301 29.485092
LeftArm 105.338573 -5.718148 -24.505347
LeftForeArm 35.633367 0.000000 52.241352
LeftHand -6.971380 -0.000000 -8.428193
LeftHandThumb1 -26.253704 0.000000 33.147579
Head 25.141908 35.320941 25.482351
391
root 2.268315 36.549727 5.584915 18.469441 -69.149664 -23.165235
RightUpLeg -7.366496 28.282303 2.469359
RightLeg 3.881676 -0.000000 -0.000000
RightFoot 4.352739 13.866036 21.525649
RightToeBase 16.352960 -0.000000 -0.000000
LeftUpLeg 23.131734 31.536610 16.573937
LeftLeg 3.005840 -0.000000 -0.000000
LeftFoot -26.768818 31.778254 -33.269828
LeftToeBase 6.747626 -0.000000 -0.000000
Spine 16.516830 -52.603001 -17.487091
RightShoulder -7.971622 -33.001116 -20.561411
RightArm -8.031427 4.355486 71.511237
RightForeArm 31.823031 -0.000000 12.088649
RightHand 1.030231 -0.000000 -13.823491
RightHandThumb1 -24.326973 -0.000000 -32.862282
LeftShoulder 3.046650 19.334901 29.435107
LeftArm 105.400013 -5.731129 -24.429804
LeftForeArm 35.599776 -0.000000 52.546352
LeftHand -6.861063 -0.000000 -8.324545
LeftHandThumb1 -26.253704 0.000000 33.147579
Head 25.198689 35.584182 25.560492
392
root 2.274161 36.549021 5.583880 18.421248 -69.161037 -23.125400
RightUpLeg -7.370661 28.283593 2.449856
RightLeg 3.889270 -0.000000 -0.000000
RightFoot 4.358180 13.880371 21.537502
RightToeBase 16.397029 -0.000000 -0.000000
LeftUpLeg 23.111983 31.545862 16.555909
LeftLeg 3.052020 -0.000000 -0.000000
LeftFoot -26.784097 31.779580 -33.254658
LeftToeBase 6.760630 -0.000000 -0.000000
Spine 16.489659 -52.571288 -17.447591
RightShoulder -7.987036 -33.019485 -20.535428
RightArm -7.941401 4.260283 71.557318
RightForeArm 31.861923 0.000000 12.073601
RightHand 1.034702 0.000000 -13.790763
RightHandThumb1 -24.326973 -0.000000 -32.862282
LeftShoulder 3.073021 19.342726 29.365994
LeftArm 105.487963 -5.769481 -24.325997
LeftForeArm 35.445919 -0.000000 52.857755
LeftHand -6.884240 -0.000000 -8.481188
LeftHandThumb1 -26.253704 0.000000 33.147579
Head 25.241105 35.850711 25.650027
